<?xml version="1.0" encoding="UTF-8"?>
<svg width="1200pt" height="1200pt" version="1.1" viewBox="0 0 1200 1200" xmlns="http://www.w3.org/2000/svg">
 <path d="m1017.9 734.29h-835.78c-17.719 0-32.109-14.438-32.109-32.109v-307.22c0-17.719 14.438-32.109 32.109-32.109h835.74c17.719 0 32.109 14.438 32.109 32.109v307.22c0.046875 17.672-14.391 32.109-32.062 32.109zm-835.78-343.36c-2.25 0-3.9844 1.8281-3.9844 3.9844v307.22c0 2.25 1.8281 3.9844 3.9844 3.9844h835.74c2.25 0 3.9844-1.8281 3.9844-3.9844v-307.18c0-2.25-1.8281-3.9844-3.9844-3.9844h-835.74z" fill="#fff"/>
 <path d="m372.14 837.19h-131.29c-7.7812 0-14.062-6.2812-14.062-14.062v-102.84c0-7.7812 6.2812-14.062 14.062-14.062s14.062 6.2812 14.062 14.062v88.781h103.17v-88.781c0-7.7812 6.2812-14.062 14.062-14.062s14.062 6.2812 14.062 14.062v102.84c0 7.7344-6.2812 14.062-14.062 14.062z" fill="#fff"/>
 <path d="m959.16 837.19h-131.29c-7.7812 0-14.062-6.2812-14.062-14.062v-102.84c0-7.7812 6.2812-14.062 14.062-14.062s14.062 6.2812 14.062 14.062v88.781h103.17v-88.781c0-7.7812 6.2812-14.062 14.062-14.062s14.062 6.2812 14.062 14.062v102.84c0 7.7344-6.2344 14.062-14.062 14.062z" fill="#fff"/>
 <path d="m264.79 674.95c-30.75 0-55.734-25.031-55.734-55.781s25.031-55.781 55.734-55.781 55.781 25.031 55.781 55.781c-0.046875 30.75-25.031 55.781-55.781 55.781zm0-83.391c-15.234 0-27.609 12.422-27.609 27.609s12.422 27.656 27.609 27.656 27.609-12.422 27.609-27.656-12.375-27.609-27.609-27.609z" fill="#fff"/>
 <path d="m239.06 666.1c-6.5625 0-12.422-4.5938-13.781-11.25-0.51562-2.5781-0.84375-5.25-0.84375-7.9688 0-22.219 18.047-40.266 40.266-40.266s40.266 18.047 40.266 40.266c0 2.6719-0.28125 5.3438-0.75 7.9688-1.5 7.5938-8.9531 12.562-16.594 11.016-7.5938-1.5-12.562-8.9531-11.016-16.594 0.1875-0.75 0.23438-1.5938 0.23438-2.3906 0-6.6562-5.4375-12.141-12.141-12.141-6.6562 0-12.141 5.4375-12.141 12.141 0 0.84375 0.046875 1.6406 0.23438 2.3906 1.5 7.5938-3.375 15.047-10.969 16.594-0.89062 0.09375-1.8281 0.23438-2.7656 0.23438z" fill="#fff"/>
 <path d="m701.9 674.95c-58.406 0-105.94-47.531-105.94-105.94s47.531-105.94 105.94-105.94 105.94 47.531 105.94 105.94-47.531 105.94-105.94 105.94zm0-183.74c-42.891 0-77.812 34.922-77.812 77.812 0 42.891 34.922 77.812 77.812 77.812s77.812-34.922 77.812-77.812c0-42.891-34.922-77.812-77.812-77.812z" fill="#fff"/>
 <path d="m737.29 667.87c-2.5312 0-5.1094-0.70312-7.4062-2.1094-6.6094-4.125-8.625-12.75-4.5-19.312 2.6719-4.3125 4.125-9.375 4.125-14.531 0-15.234-12.375-27.609-27.609-27.609s-27.609 12.375-27.609 27.609c0 5.1562 1.4062 10.125 4.125 14.484 4.125 6.6094 2.0625 15.281-4.5 19.406-6.6094 4.125-15.281 2.0625-19.406-4.5-5.4375-8.8125-8.3906-18.938-8.3906-29.344 0-30.703 25.031-55.734 55.734-55.734s55.734 25.031 55.734 55.734c0 10.359-2.8594 20.531-8.3438 29.344-2.625 4.2188-7.2656 6.5625-11.953 6.5625z" fill="#fff"/>
 <path d="m701.9 553.87c-7.7812 0-14.062-6.2812-14.062-14.062v-62.719c0-7.7812 6.2812-14.062 14.062-14.062s14.062 6.2812 14.062 14.062v62.719c0 7.7812-6.3281 14.062-14.062 14.062z" fill="#fff"/>
 <path d="m264.79 591.56c-7.7812 0-14.062-6.2812-14.062-14.062v-34.594c0-7.7812 6.2812-14.062 14.062-14.062s14.062 6.2812 14.062 14.062v34.594c0 7.7812-6.2812 14.062-14.062 14.062z" fill="#fff"/>
 <path d="m483.37 674.95c-30.75 0-55.781-25.031-55.781-55.781s25.031-55.781 55.781-55.781 55.781 25.031 55.781 55.781-24.984 55.781-55.781 55.781zm0-83.391c-15.234 0-27.656 12.422-27.656 27.609s12.422 27.656 27.656 27.656 27.656-12.422 27.656-27.656-12.375-27.609-27.656-27.609z" fill="#fff"/>
 <path d="m457.69 666.1c-6.5625 0-12.422-4.5938-13.781-11.25-0.51562-2.5781-0.84375-5.25-0.84375-7.9688 0-22.219 18.047-40.266 40.266-40.266s40.266 18.047 40.266 40.266c0 2.6719-0.28125 5.3438-0.75 7.9688-1.5 7.5938-8.9531 12.562-16.594 11.016-7.5938-1.5-12.562-8.9531-11.016-16.594 0.1875-0.75 0.23438-1.5938 0.23438-2.3906 0-6.6562-5.4375-12.141-12.141-12.141s-12.141 5.4375-12.141 12.141c0 0.84375 0.046875 1.6406 0.23438 2.3906 1.5 7.5938-3.3281 15.047-10.969 16.594-0.89062 0.09375-1.8281 0.23438-2.7656 0.23438z" fill="#fff"/>
 <path d="m483.37 591.56c-7.7812 0-14.062-6.2812-14.062-14.062v-34.594c0-7.7812 6.2812-14.062 14.062-14.062s14.062 6.2812 14.062 14.062v34.594c0 7.7812-6.2344 14.062-14.062 14.062z" fill="#fff"/>
 <path d="m920.68 674.95c-30.75 0-55.734-25.031-55.734-55.781s25.031-55.781 55.734-55.781 55.781 25.031 55.781 55.781c-0.046875 30.75-25.078 55.781-55.781 55.781zm0-83.391c-15.234 0-27.609 12.422-27.609 27.609s12.422 27.656 27.609 27.656c15.234 0 27.656-12.422 27.656-27.656s-12.422-27.609-27.656-27.609z" fill="#fff"/>
 <path d="m894.94 666.1c-6.5625 0-12.422-4.5938-13.781-11.25-0.51562-2.5781-0.84375-5.25-0.84375-7.9688 0-22.219 18.047-40.266 40.266-40.266s40.266 18.047 40.266 40.266c0 2.6719-0.28125 5.3438-0.75 7.9688-1.5 7.5938-8.9531 12.562-16.594 11.016-7.5938-1.5-12.562-8.9531-11.016-16.594 0.1875-0.75 0.23438-1.5938 0.23438-2.3906 0-6.6562-5.4375-12.141-12.141-12.141s-12.141 5.4375-12.141 12.141c0 0.84375 0.046875 1.6406 0.23438 2.3906 1.5 7.5938-3.375 15.047-10.969 16.594-0.89062 0.09375-1.8281 0.23438-2.7656 0.23438z" fill="#fff"/>
 <path d="m920.68 591.56c-7.7812 0-14.062-6.2812-14.062-14.062v-34.594c0-7.7812 6.2812-14.062 14.062-14.062s14.062 6.2812 14.062 14.062v34.594c0 7.7812-6.3281 14.062-14.062 14.062z" fill="#fff"/>
 <path d="m246.32 448.69h-26.766c-7.7812 0-14.062-6.2812-14.062-14.062s6.2812-14.062 14.062-14.062h26.766c7.7812 0 14.062 6.2812 14.062 14.062 0 7.8281-6.2812 14.062-14.062 14.062z" fill="#fff"/>
 <path d="m339.28 448.69h-26.766c-7.7812 0-14.062-6.2812-14.062-14.062s6.2812-14.062 14.062-14.062h26.766c7.7812 0 14.062 6.2812 14.062 14.062 0 7.8281-6.3281 14.062-14.062 14.062z" fill="#fff"/>
 <path d="m432.19 448.69h-26.766c-7.7812 0-14.062-6.2812-14.062-14.062s6.2812-14.062 14.062-14.062h26.766c7.7812 0 14.062 6.2812 14.062 14.062 0 7.8281-6.3281 14.062-14.062 14.062z" fill="#fff"/>
 <path d="m525.1 448.69h-26.766c-7.7812 0-14.062-6.2812-14.062-14.062s6.2812-14.062 14.062-14.062h26.766c7.7812 0 14.062 6.2812 14.062 14.062 0 7.8281-6.2812 14.062-14.062 14.062z" fill="#fff"/>
 <path d="m246.32 499.22h-26.766c-7.7812 0-14.062-6.2812-14.062-14.062s6.2812-14.062 14.062-14.062h26.766c7.7812 0 14.062 6.2812 14.062 14.062s-6.2812 14.062-14.062 14.062z" fill="#fff"/>
 <path d="m339.28 499.22h-26.766c-7.7812 0-14.062-6.2812-14.062-14.062s6.2812-14.062 14.062-14.062h26.766c7.7812 0 14.062 6.2812 14.062 14.062s-6.3281 14.062-14.062 14.062z" fill="#fff"/>
 <path d="m432.19 499.22h-26.766c-7.7812 0-14.062-6.2812-14.062-14.062s6.2812-14.062 14.062-14.062h26.766c7.7812 0 14.062 6.2812 14.062 14.062s-6.3281 14.062-14.062 14.062z" fill="#fff"/>
 <path d="m525.1 499.22h-26.766c-7.7812 0-14.062-6.2812-14.062-14.062s6.2812-14.062 14.062-14.062h26.766c7.7812 0 14.062 6.2812 14.062 14.062s-6.2812 14.062-14.062 14.062z" fill="#fff"/>
 <path d="m883.22 504.28c-7.7812 0-14.062-6.2812-14.062-14.062v-47.859c0-7.7812 6.2812-14.062 14.062-14.062s14.062 6.2812 14.062 14.062v47.859c0 7.7812-6.2812 14.062-14.062 14.062z" fill="#fff"/>
 <path d="m958.13 504.28c-7.7812 0-14.062-6.2812-14.062-14.062v-47.859c0-7.7812 6.2812-14.062 14.062-14.062s14.062 6.2812 14.062 14.062v47.859c0 7.7812-6.3281 14.062-14.062 14.062z" fill="#fff"/>
</svg>
